# xmcd CD database file
#
# Track frame offsets:
#	150
#	15827
#	27825
#	40318
#	49953
#	61284
#	76578
#	90262
#	102791
#	114817
#
# Disc length: 1717 seconds
#
# Revision: 0
# Processed by: cddbd v1.5.2PL0 Copyright (c) Steve Scherf et al.
# Submitted via: CDex 1.70beta2
#
DISCID=6006b30a
DTITLE=Henry, John - Cdn. - ON - OVM - Vanier, and the Steel Drivin' Band - Traditional and Drivin' Country Music
DYEAR=1900
DGENRE=Country
TTITLE0=Queen City Lady
TTITLE1=Look Out World
TTITLE2=After 40 Pages
TTITLE3=One Foot in the Gravel
TTITLE4=Bar Maid
TTITLE5=John Henry
TTITLE6=Stardust Lady
TTITLE7=Livin' Out of A Suitcase
TTITLE8=Ruby Lips
TTITLE9=Tennessee Waltz
EXTD=
EXTT0=
EXTT1=
EXTT2=
EXTT3=
EXTT4=
EXTT5=
EXTT6=
EXTT7=
EXTT8=
EXTT9=
PLAYORDER=
